<svg width="190" height="41" fill="none" xmlns="http://www.w3.org/2000/svg"><path d="M19.711 1.528c3.088 0 5.568.295 7.441.884 1.908.554 3.226 1.541 3.955 2.961.728 1.386.936 3.343.624 5.872-.347 2.494-1.058 4.364-2.133 5.611-1.041 1.247-2.775 1.975-5.204 2.182l-.052.312c2.775.243 4.649 1.23 5.62 2.962.971 1.697 1.249 4 .832 6.91-.346 2.39-1.023 4.244-2.029 5.56-1.006 1.282-2.445 2.182-4.319 2.702-1.873.485-4.267.727-7.18.727-2.567 0-4.788-.017-6.66-.052-1.874 0-3.591-.034-5.152-.103-1.561-.07-3.157-.156-4.787-.26L5.714 1.944a58.346 58.346 0 014.163-.26A88.918 88.918 0 0114.3 1.58c1.595-.034 3.4-.052 5.411-.052zm-.364 6.91h-4.995l-1.093 7.743h4.37c1.631 0 2.759-.277 3.383-.832.66-.554 1.127-1.714 1.405-3.48.173-1.352.035-2.252-.416-2.703-.417-.485-1.301-.727-2.654-.727zM17.422 22.26h-5.048l-1.248 9.04h4.318c1.284 0 2.307-.12 3.07-.363.764-.242 1.319-.71 1.666-1.403.381-.693.676-1.68.884-2.961.243-1.767.122-2.928-.364-3.482-.486-.554-1.579-.831-3.278-.831zm32.804-11.015c3.4 0 6.019.363 7.857 1.09 1.873.694 3.122 1.733 3.747 3.118.659 1.386.832 3.1.52 5.144-.347 2.356-1.388 3.984-3.122 4.884-1.7.866-4.25 1.42-7.65 1.663l-7.128.572c.035 1.454.4 2.39 1.093 2.805.694.381 1.786.572 3.278.572.763 0 1.752-.017 2.966-.052 1.249-.07 2.532-.139 3.85-.208a137.83 137.83 0 003.539-.312l.676 5.82c-1.734.762-3.677 1.299-5.827 1.61a41.791 41.791 0 01-6.088.468c-3.712 0-6.574-.52-8.586-1.559-2.012-1.073-3.348-2.632-4.007-4.676-.659-2.044-.832-4.572-.52-7.586.416-3.637 1.249-6.408 2.498-8.313 1.248-1.94 2.948-3.256 5.099-3.95 2.15-.727 4.752-1.09 7.805-1.09zm-.052 6.287c-1.075 0-1.943.155-2.602.467-.624.277-1.145.797-1.56 1.56-.382.761-.712 1.87-.99 3.324l4.371-.467c1.215-.104 2.134-.312 2.758-.624.625-.312 1.006-1.022 1.145-2.13.139-.9-.017-1.49-.468-1.767-.451-.277-1.336-.398-2.654-.363zm27.636-6.287c1.319.034 2.758.104 4.32.208 1.56.069 3.07.19 4.526.363 1.457.173 2.689.364 3.695.572l-.78 5.56h-5.1a235.511 235.511 0 00-4.891-.053c-1.908 0-3.192.052-3.85.156-.66.07-1.024.347-1.093.832-.07.45.086.796.468 1.039.416.242 1.145.537 2.185.883l6.036 1.87c2.082.624 3.608 1.577 4.58 2.858 1.005 1.282 1.387 2.98 1.144 5.092-.278 2.217-.954 3.88-2.03 4.988-1.075 1.109-2.532 1.836-4.37 2.183-1.839.38-4.007.571-6.504.571-1.804 0-3.712-.07-5.724-.208-1.977-.138-4.25-.415-6.817-.831l.833-5.612c.52.035 1.266.052 2.237.052h6.349c1.873 0 3.295-.034 4.266-.104.972-.069 1.648-.19 2.03-.363.381-.208.59-.485.624-.832.07-.45-.104-.779-.52-.987-.382-.208-1.18-.502-2.394-.883l-5.828-1.923c-2.29-.727-3.868-1.8-4.735-3.221-.832-1.455-1.11-3.221-.832-5.3.242-1.524.763-2.788 1.56-3.793.833-1.039 2.1-1.818 3.8-2.338 1.699-.52 3.971-.78 6.816-.78zm25.242.727l.104 4.832c1.734-1.732 3.608-3.083 5.62-4.053 2.046-1.004 4.023-1.506 5.931-1.506 2.151 0 3.868.623 5.152 1.87 1.318 1.247 1.804 3.083 1.457 5.508l-2.706 19.173h-9.47l2.289-16.16c.139-.935.087-1.576-.156-1.922-.243-.381-.763-.537-1.561-.468-.798.035-1.682.277-2.654.728-.936.415-2.064 1.125-3.382 2.13l-2.185 15.692h-9.47l3.59-25.824h7.441zM135.643.333c2.047 0 2.949.987 2.706 2.962l-.364 2.754c-.243 1.732-1.283 2.598-3.122 2.598h-3.746c-2.012 0-2.897-.988-2.654-2.962l.364-2.754C129 1.2 130.024.333 131.897.333h3.746zm1.353 11.64l-3.59 25.823h-9.418l3.59-25.824h9.418zm16.496-10.549l-2.029 14.913a24.32 24.32 0 01-.833 3.221 25.221 25.221 0 01-1.301 3.066 21.592 21.592 0 006.088-4.52c1.769-1.906 2.914-3.95 3.435-6.132h9.73c-.729 2.91-1.891 5.352-3.486 7.326a23.54 23.54 0 01-5.36 4.988 7.579 7.579 0 011.561 1.611 9.125 9.125 0 011.041 1.767l4.787 10.132h-9.73l-4.527-10.028-1.665.623c-.556.173-1.093.347-1.614.52 0 .346-.017.658-.052.935l-1.144 7.95h-9.471l5.1-36.372h9.47zm36.064 32.414c0 3.587-2.913 6.495-6.505 6.495a6.5 6.5 0 01-6.504-6.495 6.5 6.5 0 016.504-6.495c3.592 0 6.505 2.908 6.505 6.495z" fill="#fff"/></svg>